<?xml version="1.0" encoding="UTF-8" standalone="no"?>
<svg
   xmlns:dc="http://purl.org/dc/elements/1.1/"
   xmlns:cc="http://creativecommons.org/ns#"
   xmlns:rdf="http://www.w3.org/1999/02/22-rdf-syntax-ns#"
   xmlns:svg="http://www.w3.org/2000/svg"
   xmlns="http://www.w3.org/2000/svg"
   width="50"
   height="50"
   id="svg3880"
   version="1.1">
  <defs
     id="defs3882" />
  <metadata
     id="metadata3885">
    <rdf:RDF>
      <cc:Work
         rdf:about="">
        <dc:format>image/svg+xml</dc:format>
        <dc:type
           rdf:resource="http://purl.org/dc/dcmitype/StillImage" />
        <dc:title></dc:title>
      </cc:Work>
    </rdf:RDF>
  </metadata>
  <g
     id="layer1"
     transform="translate(0,-1002.3622)">
    <path
       style="fill:#123f7b;fill-opacity:1;fill-rule:evenodd;stroke:#ffffff;stroke-width:20;stroke-linecap:butt;stroke-linejoin:miter;stroke-miterlimit:4;stroke-opacity:1;stroke-dasharray:none"
       id="path2985"
       d="m 284.28571,452.36221 a 127.14286,127.14286 0 0 1 0,254.28572 l 0,-127.14286 z"
       transform="matrix(0.05,0,0,0.05,10.786245,998.38637)" />
    <path
       style="fill:#ff30b8;fill-opacity:1;fill-rule:evenodd;stroke:#ffffff;stroke-width:20;stroke-linecap:butt;stroke-linejoin:miter;stroke-miterlimit:4;stroke-opacity:1;stroke-dasharray:none"
       id="path2989"
       d="m 284.28571,706.64793 a 127.14286,127.14286 0 1 1 0,-254.28572 l 0,127.14286 z"
       transform="matrix(0.05,0,0,0.05,10.786245,998.38637)" />
    <path
       style="fill:none;stroke:#ffffff;stroke-width:22.22222221999999903;stroke-miterlimit:4;stroke-opacity:1;stroke-dasharray:none"
       id="path3814"
       d="m 288.57143,218.07646 a 97.14286,97.14286 0 1 1 -194.285717,0 97.14286,97.14286 0 1 1 194.285717,0 z"
       transform="matrix(0.0675,0,0,0.0675,12.078571,1012.642)" />
  </g>
</svg>
